Coordinates
version=1
nRows=8
nColumns=40
inDegrees=yes

Units are S.I. units (second, meters, Newtons, ...)
Angles are in degrees.

endheader
time	pelvis_tilt	pelvis_list	pelvis_rotation	pelvis_tx	pelvis_ty	pelvis_tz	hip_flexion_r	hip_adduction_r	hip_rotation_r	knee_angle_r	knee_angle_r_beta	ankle_angle_r	subtalar_angle_r	mtp_angle_r	hip_flexion_l	hip_adduction_l	hip_rotation_l	knee_angle_l	knee_angle_l_beta	ankle_angle_l	subtalar_angle_l	mtp_angle_l	lumbar_extension	lumbar_bending	lumbar_rotation	arm_flex_r	arm_add_r	arm_rot_r	elbow_flex_r	pro_sup_r	wrist_flex_r	wrist_dev_r	arm_flex_l	arm_add_l	arm_rot_l	elbow_flex_l	pro_sup_l	wrist_flex_l	wrist_dev_l
     19.12750000	     -5.49613220	     -5.45976833	     -0.69889373	      0.98705165	      0.93370393	      0.42250896	     37.77287987	     -3.57572547	     -6.77703453	     57.00869722	     57.00869722	     -1.60115726	    -15.97549863	      4.03892919	     11.25634681	     -4.56459655	     -7.52694604	     18.14578423	     18.14578423	     14.32578569	    -10.59785135	      0.09894000	    -11.29887605	      7.44012118	      3.19754331	      0.83878619	    -12.55085994	     -9.20396182	     26.81941199	     46.83357154	      0.00000000	      0.00000000	     14.39489490	    -14.51905283	     -4.84057636	     63.24978903	     46.90612655	      0.00000000	      0.00000000
     19.13985714	     -5.64724936	     -5.51826724	     -0.89161618	      0.98693577	      0.93351557	      0.42280560	     37.83791520	     -3.31482520	     -7.12944597	     53.05296075	     53.05296075	     -2.12838581	    -15.65645158	      1.42728605	     10.57975854	     -4.66660629	     -7.93358268	     17.57585099	     17.57585099	     14.21018201	    -10.23011236	     -1.08985989	    -11.28877197	      7.45673464	      1.82580799	      1.27253406	    -12.16786449	    -10.26224787	     22.39625210	     47.12119913	      0.00000000	      0.00000000	     13.48147058	    -15.29149309	     -7.67975232	     67.63035205	     47.21846021	      0.00000000	      0.00000000
     19.15221429	     -5.75562201	     -5.58940589	     -1.05388603	      0.98698153	      0.93336788	      0.42316288	     37.69110015	     -3.03767886	     -7.54977164	     48.85737982	     48.85737982	     -1.76408791	    -14.64391970	      1.42552837	      9.86038992	     -4.73638575	     -8.11524817	     17.04841059	     17.04841059	     14.45070538	    -10.03180991	     -1.15268837	    -11.28713906	      7.53990116	      1.96411639	     -0.50829372	    -12.29529246	    -10.43501655	     21.53347016	     47.15988014	      0.00000000	      0.00000000	     14.52642488	    -15.51346223	     -8.17896727	     68.95256356	     47.29006137	      0.00000000	      0.00000000
     19.16457143	     -5.92495914	     -5.62396399	     -1.17914654	      0.98711306	      0.93300598	      0.42357226	     37.38603832	     -2.77690277	     -8.01537540	     44.30631922	     44.30631922	     -1.42177221	    -13.42188296	      1.50149530	      9.23826231	     -4.77495282	     -8.28188032	     16.57845684	     16.57845684	     14.70109161	     -9.78771058	     -1.25985853	    -11.17347479	      7.59702503	      1.88644285	     -2.21002840	    -12.39102098	    -10.58379817	     20.89950108	     47.18649854	      0.00000000	      0.00000000	     15.33249517	    -15.84016198	     -8.61172834	     70.25959620	     47.35264464	      0.00000000	      0.00000000
     19.17692857	     -5.96625522	     -5.52280755	     -1.36686406	      0.98757956	      0.93257226	      0.42410075	     36.75194505	     -2.60963549	     -8.46804558	     39.52507064	     39.52507064	     -1.21420070	    -11.76301966	      0.90530632	      8.39424769	     -4.68721635	     -8.66865978	     16.02350449	     16.02350449	     14.98966123	     -9.30599150	     -1.47011702	    -11.24851077	      7.40059671	      2.06298298	     -4.04408995	    -12.35824601	    -10.90578106	     20.60669983	     47.21399286	      0.00000000	      0.00000000	     15.98484825	    -16.07318953	     -9.30833042	     72.66137040	     47.45701771	      0.00000000	      0.00000000
     19.18928571	     -6.14124332	     -5.46658148	     -1.47150787	      0.98805988	      0.93183174	      0.42469179	     36.04635037	     -2.31685587	     -8.95208412	     34.48446671	     34.48446671	     -0.94083011	    -10.13169877	      1.15711607	      7.81939618	     -4.63516949	     -8.81475752	     15.67595732	     15.67595732	     15.28449972	     -9.13551238	     -1.60777332	    -11.06249790	      7.33777690	      1.82921866	     -5.62971440	    -12.40029142	    -11.05888390	     20.28225548	     47.22702946	      0.00000000	      0.00000000	     16.58041298	    -16.49181920	     -9.69997155	     73.85843470	     47.51329079	      0.00000000	      0.00000000
     19.20164286	     -6.16893008	     -5.35269118	     -1.56539106	      0.98889632	      0.93107863	      0.42533241	     35.00389586	     -2.07727359	     -9.54166072	     29.38689343	     29.38689343	     -0.66556190	     -7.90317655	      1.44906189	      7.02539550	     -4.52516625	     -9.02908402	     15.25968076	     15.25968076	     15.60215675	     -8.81791856	     -1.76193059	    -11.05362161	      7.20052484	      1.82933038	     -7.31161503	    -12.40213978	    -11.23227725	     20.12973651	     47.23211943	      0.00000000	      0.00000000	     17.17956561	    -16.74549421	    -10.10295533	     75.47605854	     47.57845301	      0.00000000	      0.00000000
     19.21400000	     -6.16256512	     -5.15702645	     -1.65343640	      0.98998935	      0.93011680	      0.42608724	     33.85742969	     -1.88493761	    -10.21377055	     24.45866380	     24.45866380	     -0.45346483	     -5.36573918	      2.01668368	      6.19776179	     -4.33798411	     -9.29443321	     14.89390876	     14.89390876	     15.95088231	     -8.45712682	     -1.96262775	    -11.03062616	      6.90815907	      1.84302155	     -8.99822012	    -12.34453152	    -11.42854293	     20.23650856	     47.22565398	      0.00000000	      0.00000000	     17.70138044	    -17.02216317	    -10.49227934	     77.19633483	     47.64524256	      0.00000000	      0.00000000
